<svg viewBox="0 0 42 65" preserveAspectRatio="xMinYMin"><title>logo-UvA-small </title><path d="M7.203 48.766c0-1.244-.757-1.244-1.623-1.244l-.08-.065v-.266c0-.175.11-.191.284-.191.41 0 1.42.08 2.16.08.788 0 1.593-.08 2.381-.08l.047.049v.408l-.078.065h-.19c-1.025 0-1.482.11-1.482 1.292v4.574c0 2.27.441 4.05 3.154 4.05 2.822 0 3.736-1.354 3.736-4.02V49.32c0-1.797 0-1.672-1.387-1.797l-.063-.126v-.3L14.11 47c.282 0 .598.08 1.781.08.662 0 1.498-.08 2.003-.08l.063.096v.33l-.095.096c-1.15 0-1.56.063-1.56.85v5.63c0 2.885-1.688 4.351-4.557 4.351-2.287 0-4.542-.804-4.542-3.436v-6.15zm11.346 1.81c-.129-.318-.602-.401-.932-.401l-.072-.058v-.308l.131-.023c.494 0 1.215.058 1.477.058.543 0 1.073-.058 1.618-.058l.037.034-.037.331-.555.047c-.189.012-.401.083-.401.26 0 .095.059.248.105.355l1.358 3.545.77 1.76c.08.177.094.212.13.212.024 0 .059-.048.106-.189l1.689-4.477c.189-.51.33-.946.32-1.088-.013-.2-.072-.306-.414-.341l-.614-.06-.071-.035v-.367c.46 0 .92.071 1.381.071.366 0 1.147-.071 1.23-.071l.093.047v.273l-.106.082-.365.023c-.238.012-.331.131-.498.545-1.121 2.705-1.392 3.555-2.29 5.836l-.605 1.535c-.057.167-.082.177-.165.177-.105 0-.13-.035-.152-.082l-3.168-7.633zm13.522 2.405l-1.749-4.51h-.033l-1.498 4.51h3.28zm-3.486.614l-.694 2.239c-.126.41-.187.773-.187 1.026 0 .52.738.63 1.168.63.14 0 .172.095.172.299 0 .16-.017.221-.127.221-.361 0-1.513-.08-1.94-.08-.423 0-1.088.08-1.56.08-.317 0-.317-.046-.317-.252v-.173c0-.079.141-.11.522-.142.82-.078.932-.237 1.232-1.104l3.12-9.082c.315-.268.644-.632 1.039-.757l3.958 9.981c.269.662.553.994 1.466.994.175 0 .204.189.204.363 0 .172-.107.172-.297.172-.254 0-1.26-.08-1.879-.08-.627 0-1.26.034-1.89.08-.235 0-.253-.046-.253-.268 0-.173.094-.252.318-.252.237 0 1.009-.047 1.009-.426 0-.125-.063-.379-.287-.93l-1.009-2.539h-3.768zM0 42h42V0H0v42zM16.07 3.856L17.828 2.1 21 5.273 24.173 2.1l1.756 1.755-3.173 3.173 3.173 3.174-1.756 1.756L21 8.786l-3.173 3.172-1.756-1.756 3.173-3.174-3.173-3.172zm3.174 14.826l-3.173-3.173 1.756-1.755L21 16.925l3.173-3.171 1.756 1.755-3.173 3.173 3.173 3.173-1.756 1.756L21 20.438l-3.173 3.172-1.756-1.755 3.173-3.173zm6.681 19.438l-1.755 1.756-3.173-3.172-3.173 3.171-1.757-1.755 3.173-3.173-3.172-3.173 1.756-1.756 3.173 3.172 3.173-3.172 1.755 1.756-3.173 3.173 3.173 3.173zm1.228-9.037l.006-3.824-1.723 1.617s-1.004 1.031-3.276 1.616c-2.272.581-3.995.476-5.027.268-1.033-.206-1.962-.482-2.547-.76-.586-.276-1.618-.794-2.546-2.243-.55-.854-.55-2.996-.55-2.996l.042-3.993-.302-6.753s1.023.045 1.72.048c.86.004 1.6-.188 1.62-.077.033.21.057 9.403.057 9.403s.1 1.962.583 2.961c.845 1.755 4.612 1.9 4.612 1.9s.585.07 1.895-.033c1.307-.1 3.859-.478 4.684-2.024 0 0 .587-.654.799-4.372.22-3.895-.301-7.75-.301-7.75l3.651-.167s-.247 2.753-.253 7.918c-.004 5.168.473 8.198.473 8.198l-3.617 1.063z"></path></svg>