<svg id="logo-uva-large-nl" viewBox="0 0 425 42" preserveAspectRatio="xMinYMin"><title>logo-UvA-large-nl </title><path d="M55.549 3.93c0-2.282-1.388-2.282-2.977-2.282l-.146-.118v-.49c0-.32.203-.349.521-.349.752 0 2.602.147 3.96.147 1.445 0 2.92-.147 4.366-.147l.086.09v.749l-.144.118h-.347c-1.88 0-2.719.201-2.719 2.37v8.385c0 4.162.81 7.425 5.783 7.425 5.174 0 6.85-2.483 6.85-7.37V4.943c0-3.295 0-3.066-2.543-3.295l-.116-.231v-.55l.088-.176c.518 0 1.097.147 3.266.147 1.214 0 2.746-.147 3.671-.147l.115.176v.605l-.174.176c-2.109 0-2.86.116-2.86 1.56v10.32c0 5.289-3.094 7.977-8.354 7.977-4.193 0-8.326-1.473-8.326-6.299V3.93z"></path><path d="M76.915 8.438c0-.434-.022-.542-.11-.715-.194-.37-1.147-1.147-1.516-1.17l-1.148-.066c-.087 0-.106-.215-.106-.388 0-.11 0-.281.106-.281.672 0 1.192-.043 1.733-.043.998 0 2.579.084 2.968.13l6.564 7.925a48.938 48.938 0 0 0 3.532 3.9h.085V8.199c0-1.426-.52-1.646-1.214-1.666l-.93-.045c-.088 0-.131-.215-.131-.365 0-.132.065-.347.194-.347.479 0 1.604.107 2.665.107.974 0 2.015-.107 2.622-.107.106 0 .13.084.13.174v.409c0 .109-.045.13-.195.13h-.563c-1.493 0-1.493.76-1.493 2.6v12.54h-.523L77.89 8.266v9.943c0 1.86.259 2.078 2.122 2.144.087 0 .153.194.153.367s-.024.348-.087.348c-.412 0-1.8-.11-2.707-.11-1.065 0-1.54.11-2.536.11-.13 0-.151-.154-.151-.435 0-.195.022-.28.283-.28.907 0 1.948-.216 1.948-1.321V8.438zm21.127 8.62c0 3.163.065 3.185 2.187 3.294l.108.152v.409c0 .13-.323.154-.519.154-.303 0-1.755-.11-2.642-.11-1.041 0-2.102.11-3.228.11-.086-.045-.108-.175-.108-.39.022-.281.065-.325.693-.325 1.494 0 1.56-.325 1.56-1.972V8.026c0-1.235-.37-1.539-2.188-1.539l-.065-.105-.043-.35c.02-.237.216-.257.345-.257.588 0 1.28.106 2.752.106 1.083 0 2.384-.106 3.248-.106l.11.152v.386l-.087.131-.583.043c-.869.065-1.54.153-1.54 1.151v9.42zm5.371-9.834c-.238-.584-1.103-.736-1.71-.736l-.131-.106v-.564l.239-.043c.909 0 2.23.107 2.705.107.999 0 1.972-.107 2.97-.107l.063.063-.062.607-1.02.086c-.346.022-.736.151-.736.477 0 .173.109.455.194.65l2.492 6.5 1.408 3.227c.152.323.173.387.238.387.043 0 .108-.087.194-.346l3.098-8.208c.347-.933.607-1.733.585-1.994-.02-.366-.128-.561-.758-.627l-1.126-.109-.13-.064V5.75c.845 0 1.689.131 2.533.131.674 0 2.102-.131 2.253-.131l.175.087v.5l-.195.15-.673.043c-.432.022-.606.24-.91.999-2.058 4.96-2.556 6.517-4.201 10.7l-1.105 2.813c-.108.306-.15.325-.303.325-.196 0-.238-.064-.281-.15l-5.806-13.994zm16.775.758c0-1.406-1.063-1.56-2.317-1.56-.087 0-.087-.109-.087-.193v-.24c0-.194.367-.214 1.128-.214.866 0 1.84.106 2.749.106.868 0 1.732-.106 2.6-.106h4.57c.173 0 .195.193.195.431V8.85c0 .087-.043.174-.153.174-.172 0-.518.02-.54-.238l-.064-.673c-.132-1.386-1.084-1.625-2.298-1.625h-2.23c-1.212 0-1.603.261-1.603 1.906v3.922c0 .064.13.174.173.174l2.555-.086c1.3-.045 1.668-.455 1.994-1.606.043-.129.107-.174.345-.174.152 0 .262.026.262.132 0 .456-.13 1.452-.13 2.166 0 1.17.13 1.798.13 2.166 0 .13-.216.26-.348.26-.173 0-.324-.065-.367-.283-.108-.581-.108-.994-.218-1.297-.107-.325-.367-.477-1.016-.5l-3.077-.063c-.303 0-.303.106-.303.257v5.159c0 1.558 1.148 1.601 2.643 1.601h1.17c1.147 0 1.949-.023 2.49-.348.476-.28 1.148-1.6 1.386-2.142.282 0 .65.064.65.215 0 .066-.065.238-.107.347l-.609 2.188c-.172.586-.28.586-.561.586-2.34 0-4.637-.111-7.779-.111-.713 0-2.533.111-3.637.111-.065 0-.13-.217-.13-.348 0-.174.043-.367.13-.367 1.884-.088 2.404-.283 2.404-2.276V7.982zm15.857 4.744c.283.022.543.045.823.045 1.733 0 3.9-.608 3.9-3.164 0-1.904-1.3-3.14-3.206-3.14-1.472 0-1.517.345-1.517.995v5.264zm-1.949-4.614c0-1.081-.042-1.625-1.406-1.625h-.888c-.131 0-.153-.237-.153-.41 0-.109.064-.303.153-.303 1.255 0 2.533.064 3.788.064.998 0 1.972-.064 2.97-.064 2.208 0 4.373 1.474 4.373 3.746 0 1.97-1.798 3.292-3.485 3.553v.042c.842.195 1.732 1.777 1.947 2.122l2.383 3.641c.76 1.15 1.258 1.366 2.557 1.43l.13.129v.413c0 .192-.152.217-.239.217-.454 0-1.126-.067-1.45-.067-.52 0-1.043.067-1.56.067-.498 0-1.472-1.453-2.753-3.726-1.405-2.493-2.23-3.858-3.658-3.858-.174 0-.434 0-.76.045v5.308c0 .778 0 1.515 1.084 1.515.823 0 1.19 0 1.19.171 0 .412-.062.545-.388.545-1.126 0-2.057-.11-2.988-.11-.37 0-2.776.11-3.077.11-.131 0-.174-.282-.174-.457 0-.193.086-.237.521-.259 1.494-.065 1.883-.282 1.883-1.778V8.112zm15.703 5.07c-1.558-.933-2.185-1.8-2.185-3.486 0-2.71 2.21-4.225 5.131-4.225.823 0 1.993.28 2.73.606l.153 2.709v.106c0 .11-.219.151-.521.151-.283 0-.324-.129-.347-.344-.152-1.451-1.192-2.386-2.73-2.386-1.473 0-2.62 1.04-2.62 2.429 0 1.558.952 2.164 3.118 3.312 2.144 1.128 4.007 2.122 4.007 4.83 0 2.949-2.663 4.484-5.371 4.484-.889 0-2.361-.28-3.183-.628-.172-.086-.24-.368-.304-.844l-.259-2.036c0-.13.432-.13.563-.13.064 0 .129.042.173.195.497 1.645 1.624 2.598 3.357 2.598 1.517 0 2.967-1.321 2.967-2.792 0-1.41-.8-2.253-1.928-2.925l-2.75-1.624zm12.933 3.876c0 3.163.067 3.185 2.188 3.294l.11.152v.409c0 .13-.327.154-.52.154-.306 0-1.756-.11-2.645-.11-1.038 0-2.1.11-3.226.11-.086-.045-.107-.175-.107-.39.021-.281.064-.325.694-.325 1.493 0 1.557-.325 1.557-1.972V8.026c0-1.235-.368-1.539-2.187-1.539l-.064-.105-.044-.35c.022-.237.216-.257.346-.257.586 0 1.277.106 2.751.106 1.085 0 2.382-.106 3.25-.106l.109.152v.386l-.087.131-.588.043c-.865.065-1.537.153-1.537 1.151v9.42zm11.686 1.689c0 1.605 1.081 1.605 2.425 1.605l.131.106v.347c0 .262-.11.262-.454.262-.434 0-1.498-.11-3.012-.11-1.191 0-3.054.11-3.575.11-.042-.154-.085-.262-.085-.39 0-.067.022-.197.085-.24l.22-.085h.256c1.973 0 2.058-.674 2.058-2.47V7.614l-.063-.996H169.5c-1.649 0-1.904 1.04-2.318 2.425-.043.131-.129.195-.261.195-.3 0-.496-.086-.496-.215 0-.369.26-2.383.26-4.096 0-.085.303-.085.604-.085.695.933.912.933 1.842.933h8.059c1.514 0 1.947-.457 2.49-1.128.15 0 .65 0 .65.195 0 .174-.434 1.949-.476 3.51 0 .236-.064.691-.173.691-.195 0-.695-.106-.695-.215l-.085-1.085c-.088-1.103-.606-1.125-1.496-1.125h-2.988v12.129zm9.374-10.765c0-1.406-1.061-1.56-2.317-1.56-.088 0-.088-.109-.088-.193v-.24c0-.194.368-.214 1.129-.214.866 0 1.84.106 2.749.106.867 0 1.734-.106 2.601-.106h4.568c.174 0 .196.193.196.431V8.85c0 .087-.042.174-.154.174-.169 0-.518.02-.541-.238l-.063-.673c-.132-1.386-1.081-1.625-2.297-1.625h-2.23c-1.213 0-1.604.261-1.604 1.906v3.922c0 .064.131.174.173.174l2.556-.086c1.3-.045 1.668-.455 1.994-1.606.045-.129.108-.174.345-.174.152 0 .26.026.26.132 0 .456-.128 1.452-.128 2.166 0 1.17.127 1.798.127 2.166 0 .13-.214.26-.344.26-.174 0-.325-.065-.37-.283-.104-.581-.104-.994-.216-1.297-.109-.325-.368-.477-1.014-.5l-3.079-.063c-.304 0-.304.106-.304.257v5.159c0 1.558 1.149 1.601 2.643 1.601h1.168c1.149 0 1.952-.023 2.493-.348.48-.28 1.148-1.6 1.387-2.142.282 0 .65.064.65.215 0 .066-.063.238-.108.347l-.608 2.188c-.173.586-.282.586-.563.586-2.339 0-4.637-.111-7.778-.111-.711 0-2.533.111-3.638.111-.063 0-.132-.217-.132-.348 0-.174.048-.367.132-.367 1.884-.088 2.405-.283 2.405-2.276V7.982zm16.223 9.076c0 3.163.067 3.185 2.189 3.294l.104.152v.409c0 .13-.322.154-.517.154-.305 0-1.754-.11-2.64-.11-1.043 0-2.102.11-3.228.11-.086-.045-.11-.175-.11-.39.024-.281.065-.325.695-.325 1.494 0 1.558-.325 1.558-1.972V8.026c0-1.235-.367-1.539-2.188-1.539l-.065-.105-.041-.35c.02-.237.214-.257.346-.257.585 0 1.277.106 2.748.106 1.084 0 2.383-.106 3.25-.106l.108.152v.386l-.085.131-.585.043c-.868.065-1.539.153-1.539 1.151v9.42zm11.27 1.689c0 1.605 1.084 1.605 2.428 1.605l.127.106v.347c0 .262-.11.262-.454.262-.433 0-1.494-.11-3.007-.11-1.195 0-3.055.11-3.579.11-.04-.154-.085-.262-.085-.39 0-.067.022-.197.085-.24l.219-.085h.26c1.97 0 2.056-.674 2.056-2.47V7.614l-.066-.996h-2.9c-1.648 0-1.904 1.04-2.316 2.425-.044.131-.132.195-.263.195-.301 0-.5-.086-.5-.215 0-.369.264-2.383.264-4.096 0-.085.303-.085.603-.085.696.933.91.933 1.844.933h8.057c1.517 0 1.948-.457 2.493-1.128.15 0 .65 0 .65.195 0 .174-.433 1.949-.48 3.51 0 .236-.062.691-.17.691-.195 0-.695-.106-.695-.215l-.087-1.085c-.086-1.103-.608-1.125-1.497-1.125h-2.988v12.129zM225.91 7.224c-.236-.584-1.104-.736-1.709-.736l-.13-.106v-.564l.24-.043c.905 0 2.226.107 2.706.107.995 0 1.968-.107 2.966-.107l.068.063-.068.607-1.017.086c-.346.022-.735.151-.735.477 0 .173.108.455.193.65l2.49 6.5 1.411 3.227c.148.323.173.387.237.387.045 0 .11-.087.196-.346l3.096-8.208c.346-.933.605-1.733.586-1.994-.022-.366-.131-.561-.758-.627l-1.126-.109-.13-.064V5.75c.844 0 1.688.131 2.532.131.672 0 2.103-.131 2.254-.131l.171.087v.5l-.194.15-.67.043c-.435.022-.606.24-.911.999-2.057 4.96-2.553 6.517-4.201 10.7l-1.108 2.813c-.104.306-.15.325-.302.325-.193 0-.238-.064-.28-.15l-5.807-13.994zm19.974 6.933l-2.405-6.194h-.042l-2.056 6.194h4.503zM241.1 15l-.954 3.077c-.172.562-.259 1.061-.259 1.408 0 .714 1.019.867 1.603.867.195 0 .237.129.237.41 0 .217-.019.305-.17.305-.498 0-2.082-.11-2.668-.11-.581 0-1.49.11-2.14.11-.435 0-.435-.067-.435-.349v-.237c0-.108.195-.153.713-.195 1.126-.109 1.28-.325 1.693-1.516l4.284-12.476c.435-.367.89-.867 1.433-1.042l5.436 13.712c.369.909.756 1.364 2.016 1.364.237 0 .279.263.279.5 0 .24-.151.24-.413.24-.345 0-1.732-.112-2.576-.112-.866 0-1.734.044-2.598.111-.323 0-.35-.067-.35-.372 0-.236.133-.343.437-.343.326 0 1.384-.066 1.384-.587 0-.171-.085-.518-.39-1.277L246.277 15H241.1zm13.745-6.562c0-.434-.027-.542-.111-.715-.194-.37-1.15-1.147-1.515-1.17l-1.15-.066c-.085 0-.111-.215-.111-.388 0-.11 0-.281.11-.281.672 0 1.193-.043 1.734-.043.994 0 2.578.084 2.965.13l6.565 7.925a50.029 50.029 0 0 0 3.53 3.9h.087V8.199c0-1.426-.519-1.646-1.213-1.666l-.93-.045c-.088 0-.132-.215-.132-.365 0-.132.07-.347.198-.347.474 0 1.6.107 2.663.107.976 0 2.012-.107 2.623-.107.109 0 .129.084.129.174v.409c0 .109-.042.13-.193.13h-.567c-1.493 0-1.493.76-1.493 2.6v12.54h-.523L255.816 8.266v9.943c0 1.86.256 2.078 2.123 2.144.088 0 .15.194.15.367s-.02.348-.084.348c-.416 0-1.799-.11-2.71-.11-1.06 0-1.537.11-2.535.11-.128 0-.153-.154-.153-.435 0-.195.025-.28.281-.28.913 0 1.956-.216 1.956-1.321V8.438zm33.652 3.443l-3.206-8.27h-.062l-2.746 8.27h6.014zm-6.391 1.126l-1.272 4.105c-.231.752-.343 1.418-.343 1.88 0 .955 1.353 1.157 2.14 1.157.257 0 .317.173.317.546 0 .293-.031.407-.233.407-.663 0-2.775-.146-3.559-.146-.774 0-1.992.146-2.86.146-.58 0-.58-.085-.58-.462v-.318c0-.145.26-.202.957-.261 1.505-.143 1.709-.434 2.26-2.023l5.72-16.65c.576-.492 1.18-1.158 1.904-1.388l7.257 18.298c.493 1.214 1.014 1.822 2.687 1.822.321 0 .375.346.375.665 0 .317-.197.317-.545.317-.465 0-2.312-.146-3.444-.146-1.151 0-2.311.06-3.466.146-.431 0-.464-.085-.464-.492 0-.317.173-.461.583-.461.435 0 1.85-.088 1.85-.781 0-.23-.115-.695-.526-1.706l-1.85-4.655h-6.908zm30.336-7.232c.671 0 1.362.063 2.056.063.544 0 1.105-.063 1.647-.063.324 0 .39.084.39.152v.345c0 .15-.066.26-.155.26-.15 0-.387-.045-.649-.045-1.258 0-1.258.629-1.258 2.038 0 1.234.24 9.335.24 10.526 0 .605.305 1.3 1.236 1.3.867 0 .971.044.971.24 0 .26-.126.476-.191.476-1.15 0-2.057-.11-2.968-.11-.91 0-1.84.11-2.772.11-.153 0-.173-.087-.173-.216v-.218c0-.216.195-.281 1.191-.281.435 0 .822-.52.822-1.279 0-2.338-.084-7.386-.173-11.09-.087-.02-.065-.02-.065-.02-1.212 2.49-2.792 6.107-3.528 8.036l-2.041 5.35c-.017.063-.084.128-.193.128-.105 0-.195-.109-.258-.41a9.81 9.81 0 0 0-.544-1.582l-4.093-9.965c-.153-.369-.282-.628-.365-.628-.092 0-.092.432-.092.673 0 1.711-.256 8.25-.256 9.314 0 .93 0 1.473 1.906 1.473.13 0 .15.107.15.367 0 .086-.02.348-.108.348-.305 0-1.364-.11-2.534-.11-1.232 0-2.447.11-2.752.11-.064 0-.13-.067-.13-.176v-.323c0-.195.175-.216.435-.216 1.775 0 2.035-.542 2.035-2.428 0-1.061.365-9.032.365-9.812 0-1.148-.561-1.625-2.506-1.625-.067 0-.112-.106-.112-.238v-.28c0-.11.066-.194.176-.194.821 0 1.602.107 2.467.107.54 0 1.104-.107 1.647-.107.154 0 .305.347.41.628l4.68 11.198h.103l4.989-11.826zm7.833 7.407c-1.565-.933-2.193-1.8-2.193-3.486 0-2.71 2.209-4.225 5.134-4.225.824 0 1.994.28 2.732.606l.151 2.709v.106c0 .11-.218.151-.523.151-.282 0-.321-.129-.345-.344-.151-1.451-1.19-2.386-2.73-2.386-1.47 0-2.62 1.04-2.62 2.429 0 1.558.955 2.164 3.12 3.312 2.147 1.128 4.01 2.122 4.01 4.83 0 2.949-2.67 4.484-5.373 4.484-.89 0-2.364-.28-3.187-.628-.172-.086-.237-.368-.304-.844l-.26-2.036c0-.13.435-.13.564-.13.07 0 .132.042.173.195.5 1.645 1.629 2.598 3.36 2.598 1.517 0 2.966-1.321 2.966-2.792 0-1.41-.8-2.253-1.926-2.925l-2.749-1.624zm15.775 5.956c0 1.605 1.081 1.605 2.425 1.605l.132.107v.347c0 .261-.11.261-.457.261-.432 0-1.492-.11-3.009-.11-1.193 0-3.057.11-3.574.11-.047-.154-.087-.261-.087-.39 0-.066.023-.196.087-.24l.218-.085h.26c1.97 0 2.056-.673 2.056-2.47V8.005l-.064-.995h-2.902c-1.647 0-1.91 1.039-2.32 2.425-.041.13-.13.195-.26.195-.306 0-.495-.087-.495-.215 0-.37.257-2.383.257-4.096 0-.085.304-.085.607-.085.694.932.909.932 1.84.932h8.057c1.516 0 1.951-.456 2.493-1.127.154 0 .648 0 .648.195 0 .174-.432 1.948-.475 3.51 0 .235-.069.69-.173.69-.196 0-.692-.105-.692-.214l-.086-1.085c-.09-1.103-.608-1.125-1.497-1.125h-2.989v12.128zm9.092-11.156c0-1.406-1.062-1.56-2.317-1.56-.086 0-.086-.109-.086-.193v-.24c0-.194.368-.214 1.126-.214.864 0 1.84.106 2.752.106.865 0 1.732-.106 2.595-.106h4.575c.17 0 .192.193.192.431V8.85c0 .087-.044.174-.153.174-.173 0-.52.02-.541-.238l-.067-.673c-.128-1.386-1.081-1.625-2.29-1.625h-2.235c-1.211 0-1.601.261-1.601 1.906v3.922c0 .064.129.174.175.174l2.553-.086c1.298-.045 1.67-.455 1.993-1.606.042-.129.11-.174.35-.174.15 0 .254.026.254.132 0 .456-.127 1.452-.127 2.166 0 1.17.127 1.798.127 2.166 0 .13-.214.26-.345.26-.172 0-.323-.065-.368-.283-.108-.581-.108-.994-.214-1.297-.112-.325-.372-.477-1.021-.5l-3.074-.063c-.303 0-.303.106-.303.257v5.159c0 1.558 1.147 1.601 2.642 1.601h1.17c1.149 0 1.95-.023 2.49-.348.481-.28 1.149-1.6 1.385-2.142.285 0 .65.064.65.215 0 .066-.064.238-.106.347l-.608 2.188c-.172.586-.28.586-.562.586-2.34 0-4.636-.111-7.775-.111-.715 0-2.535.111-3.639.111-.067 0-.13-.217-.13-.348 0-.174.041-.367.13-.367 1.881-.088 2.403-.283 2.403-2.276V7.982zm15.545 4.744c.282.022.543.045.822.045 1.732 0 3.9-.608 3.9-3.164 0-1.904-1.299-3.14-3.204-3.14-1.475 0-1.518.345-1.518.995v5.264zm-1.949-4.614c0-1.081-.045-1.625-1.41-1.625h-.89c-.127 0-.15-.237-.15-.41 0-.109.067-.303.15-.303 1.257 0 2.541.064 3.795.064.997 0 1.972-.064 2.965-.064 2.21 0 4.379 1.474 4.379 3.746 0 1.97-1.8 3.292-3.49 3.553v.042c.846.195 1.736 1.777 1.95 2.122l2.383 3.641c.755 1.15 1.254 1.366 2.558 1.43l.127.129v.413c0 .192-.15.217-.237.217-.458 0-1.13-.067-1.452-.067-.521 0-1.04.067-1.559.067-.499 0-1.474-1.453-2.751-3.726-1.407-2.493-2.233-3.858-3.664-3.858-.17 0-.432 0-.755.045v5.308c0 .778 0 1.515 1.085 1.515.818 0 1.191 0 1.191.171 0 .412-.064.545-.394.545-1.127 0-2.054-.11-2.989-.11-.365 0-2.767.11-3.074.11-.13 0-.172-.282-.172-.457 0-.193.084-.237.517-.259 1.494-.065 1.887-.282 1.887-1.778V8.112zm17.49 9.71c0 2.384 2.449 2.384 3.399 2.384 2.966 0 6.127-2.447 6.127-6.976 0-3.856-2.076-5.762-3.573-6.627-1.038-.455-2.404-.563-3.335-.563-1.773 0-2.618.128-2.618 1.517v10.266zm-1.954-9.66c0-.823-.17-1.667-.973-1.667-.26 0-.95.086-1.363.086-.089 0-.089-.324-.089-.433 0-.13 0-.195.37-.28 1.454-.305 4.915-.542 6.777-.542 1.194 0 2.32.108 3.383.387 2.943.804 5.695 3.425 5.695 7.41 0 5.37-4.486 7.799-8.601 7.799-2.058 0-3.142-.089-4.22-.089-1.086 0-2.167.065-3.251.089-.086 0-.108-.195-.108-.35 0-.15.108-.366.195-.366.695-.087 1.254-.13 1.647-.39.324-.217.538-.565.538-1.256V8.161zm22.438 5.995l-2.407-6.194h-.044l-2.05 6.194h4.5zm-4.79.843l-.95 3.077c-.176.562-.26 1.061-.26 1.408 0 .714 1.017.867 1.604.867.192 0 .235.129.235.41 0 .217-.022.305-.171.305-.5 0-2.079-.11-2.665-.11-.585 0-1.495.11-2.144.11-.432 0-.432-.067-.432-.349v-.237c0-.108.195-.153.714-.195 1.126-.109 1.277-.325 1.688-1.516l4.287-12.476c.433-.367.89-.867 1.43-1.042l5.437 13.712c.372.909.761 1.364 2.016 1.364.24 0 .28.263.28.5 0 .24-.149.24-.407.24-.346 0-1.736-.112-2.58-.112-.867 0-1.735.044-2.602.111-.322 0-.344-.067-.344-.372 0-.236.13-.343.432-.343.325 0 1.388-.066 1.388-.587 0-.171-.087-.518-.391-1.277L397.1 15h-5.18zm26.111-9.225c.673 0 1.366.063 2.06.063.538 0 1.105-.063 1.646-.063.323 0 .387.084.387.152v.345c0 .15-.064.26-.147.26-.153 0-.393-.045-.653-.045-1.253 0-1.253.629-1.253 2.038 0 1.234.236 9.335.236 10.526 0 .605.304 1.3 1.236 1.3.863 0 .975.044.975.24 0 .26-.131.476-.196.476-1.151 0-2.057-.11-2.969-.11-.908 0-1.84.11-2.774.11-.15 0-.172-.087-.172-.216v-.218c0-.216.196-.281 1.19-.281.434 0 .822-.52.822-1.279 0-2.338-.083-7.386-.17-11.09-.086-.02-.067-.02-.067-.02-1.212 2.49-2.794 6.107-3.528 8.036l-2.036 5.35a.203.203 0 0 1-.195.128c-.11 0-.194-.109-.261-.41-.13-.545-.325-1.064-.542-1.582l-4.093-9.965c-.153-.369-.28-.628-.367-.628-.087 0-.087.432-.087.673 0 1.711-.263 8.25-.263 9.314 0 .93 0 1.473 1.908 1.473.13 0 .15.107.15.367 0 .086-.02.348-.11.348-.299 0-1.362-.11-2.532-.11-1.236 0-2.449.11-2.749.11-.065 0-.128-.067-.128-.176v-.323c0-.195.17-.216.428-.216 1.779 0 2.039-.542 2.039-2.428 0-1.061.368-9.032.368-9.812 0-1.148-.56-1.625-2.515-1.625-.061 0-.109-.106-.109-.238v-.28c0-.11.068-.194.177-.194.822 0 1.6.107 2.472.107.54 0 1.1-.107 1.643-.107.153 0 .303.347.412.628l4.677 11.198h.11l4.98-11.826zM0 42h42V0H0v42zM16.07 3.856L17.828 2.1 21 5.273 24.173 2.1l1.756 1.755-3.173 3.173 3.173 3.174-1.756 1.756L21 8.786l-3.173 3.172-1.756-1.756 3.173-3.174-3.173-3.172zm3.174 14.826l-3.173-3.173 1.756-1.755L21 16.925l3.173-3.171 1.756 1.755-3.173 3.173 3.173 3.173-1.756 1.756L21 20.438l-3.173 3.172-1.756-1.755 3.173-3.173zm6.681 19.438l-1.755 1.756-3.173-3.172-3.173 3.171-1.757-1.755 3.173-3.173-3.172-3.173 1.756-1.756 3.173 3.172 3.173-3.172 1.755 1.756-3.173 3.173 3.173 3.173zm1.228-9.037l.006-3.824-1.723 1.617s-1.004 1.031-3.276 1.616c-2.272.581-3.995.476-5.027.268-1.033-.206-1.962-.482-2.547-.76-.586-.276-1.618-.794-2.546-2.243-.55-.854-.55-2.996-.55-2.996l.042-3.993-.302-6.753s1.023.045 1.72.048c.86.004 1.6-.188 1.62-.077.033.21.057 9.403.057 9.403s.1 1.962.583 2.961c.845 1.755 4.612 1.9 4.612 1.9s.585.07 1.895-.033c1.307-.1 3.859-.478 4.684-2.024 0 0 .587-.654.799-4.372.22-3.895-.301-7.75-.301-7.75l3.651-.167s-.247 2.753-.253 7.918c-.004 5.168.473 8.198.473 8.198l-3.617 1.063z"></path></svg>